<svg xmlns="http://www.w3.org/2000/svg" xml:space="preserve" width="120.65mm" height="120.65mm" version="1.1" style="fill-rule:evenodd" viewBox="0 0 12065 12065">
  <!-- by: Jonimar at treedbox.com -->
  <style type="text/css">
   <![CDATA[
   .a {fill:#FFF}
   .b {fill:#EE314C}
   ]]>
 </style>
    <path class="a" d="M6032 0c3332,0 6033,2701 6033,6032 0,3332 -2701,6033 -6033,6033 -3331,0 -6032,-2701 -6032,-6033 0,-3331 2701,-6032 6032,-6032zm-119 5125l0 716 -3369 0 0 -2109 2765 0c148,0 142,-317 0,-317l-3008 0c-74,0 -96,22 -96,96l0 5043c0,74 22,96 96,96l3112 0c140,0 147,-317 0,-317l-2869 0 0 -2175 3369 0 0 774c0,1128 700,1821 1983,1821 1173,0 1704,-479 1954,-1320 42,-132 -273,-248 -324,-110 -221,730 -642,1113 -1630,1113 -1986,0 -1644,-1658 -1644,-3318 0,-929 553,-1489 1644,-1489 1766,0 1397,1226 1741,1135 146,-39 230,-64 199,-169 -251,-841 -797,-1283 -1940,-1283 -1305,0 -1983,693 -1983,1813z"/>
</svg>
