<svg xmlns="http://www.w3.org/2000/svg" xml:space="preserve" width="120.65mm" height="120.65mm" version="1.1" style="fill-rule:evenodd" viewBox="0 0 12065 12065">
	<!-- by: Jonimar at treedbox.com -->
	<style type="text/css">
		<![CDATA[
		.a {fill:#FFF}
		.b {fill:#EE314C}
		.fil1 {fill:#EE314C}
		]]>
	</style>
	<g>
		<path class="fil1" d="M1164 2944l-1128 0c-28,0 -36,8 -36,36l0 1890c0,28 8,36 36,36l1166 0c25,0 36,-8 36,-36l0 -49c0,-25 -11,-34 -36,-34l-1075 0 0 -815 918 0c25,0 33,-8 33,-36l0 -50c0,-24 -8,-33 -33,-33l-918 0 0 -790 1037 0c27,0 36,-9 36,-33l0 -50c0,-28 -9,-36 -36,-36z"/>
		<path class="fil1" d="M2175 2944l-564 0c-27,0 -35,8 -35,36l0 1890c0,28 8,36 35,36l564 0c514,0 802,-279 802,-729l0 -503c0,-451 -288,-730 -802,-730zm675 730l0 503c0,384 -241,610 -672,610l-475 0 0 -1724 475 0c434,0 672,226 672,611z"/>
		<path class="fil1" d="M4525 2944l-1128 0c-28,0 -36,8 -36,36l0 1890c0,28 8,36 36,36l58 0c25,0 33,-8 33,-36l0 -870 901 0c28,0 36,-9 36,-33l0 -50c0,-28 -8,-36 -36,-36l-901 0 0 -818 1037 0c27,0 36,-9 36,-33l0 -50c0,-28 -9,-36 -36,-36z"/>
		<path class="fil1" d="M5713 2944l-793 0c-28,0 -36,8 -36,36l0 1890c0,28 8,36 36,36l58 0c25,0 33,-8 33,-36l0 -826 456 0c232,0 337,80 429,263l287 569c11,25 25,30 69,30l53 0c27,0 33,-16 19,-36l-309 -613c-61,-114 -122,-183 -227,-227 298,-25 486,-215 486,-533 0,-351 -212,-553 -561,-553zm429 553c0,276 -166,428 -443,428l-688 0 0 -862 688 0c282,0 443,157 443,434z"/>
		<path class="fil1" d="M8139 4873l-766 -1910c-8,-25 -22,-33 -47,-33l-55 0c-25,0 -36,8 -47,33l-766 1910c-8,20 -3,33 25,33l47 0c41,0 55,-5 64,-30l243 -611 917 0 247 611c5,25 19,30 61,30l50 0c30,0 35,-13 27,-33zm-813 -1697l393 981 -843 0 392 -981c19,-55 22,-105 22,-119l8 0c3,14 9,64 28,119z"/>
		<path class="fil1" d="M9815 2944l-55 0c-28,0 -36,8 -36,33l0 1247c0,190 19,376 19,497l-5 0c-67,-94 -152,-249 -255,-395l-953 -1363c-6,-8 -17,-19 -39,-19l-55 0c-28,0 -36,8 -36,36l0 1890c0,28 8,36 36,36l55 0c25,0 33,-8 33,-36l0 -1288c0,-174 -16,-351 -16,-456l5 0c58,80 133,230 224,360l981 1398c11,20 20,22 39,22l58 0c25,0 33,-8 33,-36l0 -1890c0,-28 -8,-36 -33,-36z"/>
	</g>
	<g>
		<path class="fil1" d="M0 6329l0 677c0,423 263,683 743,683 440,0 639,-180 733,-495 8,-25 3,-36 -22,-44l-53 -20c-25,-8 -36,-2 -47,22 -83,274 -240,418 -611,418 -400,0 -616,-216 -616,-561l0 -683c0,-348 207,-558 616,-558 360,0 523,130 606,403 8,25 19,28 47,22l50 -16c24,-11 33,-20 24,-47 -94,-315 -298,-481 -727,-481 -489,0 -743,260 -743,680z"/>
		<path class="fil1" d="M3277 7617l-766 -1910c-8,-25 -22,-33 -47,-33l-55 0c-25,0 -36,8 -47,33l-766 1910c-8,19 -3,33 25,33l47 0c42,0 55,-6 64,-30l243 -611 918 0 246 611c6,24 19,30 61,30l50 0c30,0 36,-14 27,-33zm-813 -1697l393 981 -843 0 392 -981c19,-56 22,-105 22,-119l9 0c2,14 8,63 27,119z"/>
		<path class="fil1" d="M4367 5687l-793 0c-28,0 -36,9 -36,36l0 1891c0,28 8,36 36,36l58 0c25,0 33,-8 33,-36l0 -826 456 0c232,0 337,80 429,262l287 570c11,24 25,30 69,30l53 0c27,0 33,-17 19,-36l-310 -614c-60,-113 -121,-182 -226,-226 298,-25 486,-216 486,-534 0,-351 -213,-553 -561,-553zm429 553c0,277 -166,429 -443,429l-688 0 0 -863 688 0c282,0 443,158 443,434z"/>
		<path class="fil1" d="M5907 5687l-564 0c-28,0 -36,9 -36,36l0 1891c0,28 8,36 36,36l564 0c514,0 801,-279 801,-730l0 -503c0,-450 -287,-730 -801,-730zm674 730l0 503c0,384 -240,611 -672,611l-475 0 0 -1725 475 0c434,0 672,227 672,611z"/>
		<path class="fil1" d="M7034 6331l0 675c0,423 260,683 747,683 481,0 741,-260 741,-683l0 -675c0,-422 -260,-682 -741,-682 -487,0 -747,260 -747,682zm1360 0l0 675c0,354 -215,564 -613,564 -404,0 -619,-210 -619,-564l0 -675c0,-353 215,-563 619,-563 398,0 613,210 613,563z"/>
		<path class="fil1" d="M8845 6199c0,428 376,486 721,528 302,36 589,77 589,403 0,293 -204,437 -602,437 -310,0 -506,-130 -625,-409 -14,-28 -22,-30 -47,-22l-53 19c-27,11 -30,22 -19,50 133,329 357,484 744,484 480,0 729,-205 729,-564 0,-426 -351,-484 -688,-523 -312,-33 -619,-85 -619,-411 0,-266 207,-421 564,-421 309,0 483,116 608,362 14,25 22,25 44,17l55 -25c22,-8 31,-22 17,-47 -144,-293 -354,-428 -724,-428 -437,0 -694,213 -694,550z"/>
		<path class="fil1" d="M10578 6331l0 675c0,423 260,683 746,683 481,0 741,-260 741,-683l0 -675c0,-422 -260,-682 -741,-682 -486,0 -746,260 -746,682zm1360 0l0 675c0,354 -216,564 -614,564 -403,0 -619,-210 -619,-564l0 -675c0,-353 216,-563 619,-563 398,0 614,210 614,563z"/>
	</g>
	<g>
		<path class="fil1" d="M1991 8680l0 227c0,141 88,228 249,228 147,0 213,-60 245,-165 2,-9 1,-12 -8,-15l-17 -7c-9,-2 -12,-1 -16,8 -28,91 -80,139 -204,139 -134,0 -206,-72 -206,-187l0 -229c0,-116 69,-186 206,-186 120,0 174,43 202,135 3,8 7,9 16,7l16 -5c9,-4 12,-7 9,-16 -32,-106 -100,-161 -243,-161 -164,0 -249,87 -249,227z"/>
		<path class="fil1" d="M2628 8466l-20 0c-9,0 -12,3 -12,12l0 632c0,9 3,12 12,12l367 0c9,0 11,-3 11,-12l0 -17c0,-8 -2,-11 -11,-11l-336 0 0 -604c0,-9 -3,-12 -11,-12z"/>
		<path class="fil1" d="M3044 8681l0 226c0,141 87,228 249,228 161,0 248,-87 248,-228l0 -226c0,-141 -87,-228 -248,-228 -162,0 -249,87 -249,228zm454 0l0 226c0,118 -72,188 -205,188 -135,0 -207,-70 -207,-188l0 -226c0,-118 72,-188 207,-188 133,0 205,70 205,188z"/>
		<path class="fil1" d="M4054 8466l-443 0c-9,0 -12,3 -12,12l0 17c0,8 3,11 12,11l200 0 0 604c0,9 3,12 13,12l19 0c8,0 11,-3 11,-12l0 -604 200 0c10,0 13,-3 13,-11l0 -17c0,-9 -3,-12 -13,-12z"/>
		<path class="fil1" d="M4618 8466l-19 0c-8,0 -11,3 -11,12l0 292 -391 0 0 -292c0,-9 -3,-12 -11,-12l-20 0c-9,0 -12,3 -12,12l0 632c0,9 3,12 12,12l20 0c8,0 11,-3 11,-12l0 -300 391 0 0 300c0,9 3,12 11,12l19 0c9,0 12,-3 12,-12l0 -632c0,-9 -3,-12 -12,-12z"/>
		<path class="fil1" d="M4782 8478l0 632c0,9 3,12 12,12l19 0c8,0 11,-3 11,-12l0 -632c0,-9 -3,-12 -11,-12l-19 0c-9,0 -12,3 -12,12z"/>
		<path class="fil1" d="M5449 8466l-19 0c-9,0 -12,3 -12,11l0 417c0,64 7,125 7,166l-2 0c-22,-31 -51,-83 -85,-132l-319 -456c-2,-2 -5,-6 -13,-6l-18 0c-9,0 -12,3 -12,12l0 632c0,9 3,12 12,12l18 0c9,0 11,-3 11,-12l0 -431c0,-58 -5,-117 -5,-152l2 0c19,27 44,77 74,120l329 468c3,6 6,7 12,7l20 0c8,0 11,-3 11,-12l0 -632c0,-9 -3,-12 -11,-12z"/>
		<path class="fil1" d="M6077 8791l-227 0c-9,0 -12,4 -12,12l0 17c0,8 3,12 12,12l198 0 0 80c0,112 -73,183 -206,183 -135,0 -207,-71 -207,-189l0 -227c0,-116 68,-186 206,-186 120,0 174,43 202,135 3,8 7,10 16,7l16 -5c9,-4 11,-7 9,-16 -32,-106 -100,-161 -243,-161 -164,0 -249,87 -249,227l0 226c0,141 87,229 250,229 160,0 247,-88 247,-223l0 -108c0,-9 -3,-13 -12,-13z"/>
		<path class="fil1" d="M6827 8466l-376 0c-10,0 -12,3 -12,12l0 632c0,9 2,12 12,12l19 0c8,0 11,-3 11,-12l0 -291 301 0c9,0 12,-3 12,-11l0 -17c0,-9 -3,-12 -12,-12l-301 0 0 -273 346 0c10,0 12,-3 12,-11l0 -17c0,-9 -2,-12 -12,-12z"/>
		<path class="fil1" d="M6920 8681l0 226c0,141 87,228 249,228 161,0 248,-87 248,-228l0 -226c0,-141 -87,-228 -248,-228 -162,0 -249,87 -249,228zm455 0l0 226c0,118 -73,188 -206,188 -135,0 -207,-70 -207,-188l0 -226c0,-118 72,-188 207,-188 133,0 206,70 206,188z"/>
		<path class="fil1" d="M7826 8466l-265 0c-9,0 -12,3 -12,12l0 632c0,9 3,12 12,12l20 0c8,0 11,-3 11,-12l0 -276 152 0c78,0 113,27 143,88l97 190c3,8 8,10 23,10l17 0c9,0 11,-6 7,-12l-104 -205c-20,-38 -41,-61 -76,-76 100,-8 163,-72 163,-178 0,-118 -71,-185 -188,-185zm144 185c0,92 -56,143 -148,143l-230 0 0 -288 230 0c94,0 148,52 148,145z"/>
		<path class="fil1" d="M8938 8466l-18 0c-9,0 -12,3 -16,11l-246 436 -248 -437c-4,-7 -7,-10 -17,-10l-15 0c-9,0 -12,3 -12,12l0 632c0,9 3,12 12,12l17 0c9,0 12,-3 12,-12l0 -424c0,-50 -2,-100 -6,-154l2 0c22,47 43,86 67,128l167 296c3,8 7,9 15,9l13 0c7,0 11,-2 14,-9l165 -292c25,-44 46,-84 69,-132l2 0c-5,54 -7,106 -7,154l0 424c0,9 3,12 12,12l18 0c8,0 11,-3 11,-12l0 -632c0,-9 -3,-12 -11,-12z"/>
		<path class="fil1" d="M10063 8466l-19 0c-9,0 -12,3 -12,11l0 417c0,64 7,125 7,166l-2 0c-22,-31 -51,-83 -85,-132l-319 -456c-2,-2 -5,-6 -13,-6l-18 0c-10,0 -12,3 -12,12l0 632c0,9 2,12 12,12l18 0c8,0 11,-3 11,-12l0 -431c0,-58 -5,-117 -5,-152l2 0c19,27 44,77 74,120l328 468c4,6 7,7 13,7l20 0c8,0 11,-3 11,-12l0 -632c0,-9 -3,-12 -11,-12z"/>
		<path class="fil1" d="M9452 8464l-378 0c-9,0 -12,3 -12,12l0 634c0,9 3,12 12,12l391 0c8,0 12,-3 12,-12l0 -17c0,-8 -4,-11 -12,-11l-361 0 0 -273 308 0c8,0 11,-3 11,-12l0 -17c0,-8 -3,-11 -11,-11l-308 0 0 -265 348 0c9,0 12,-3 12,-11l0 -17c0,-9 -3,-12 -12,-12z"/>
	</g>
</svg>
